<svg width="104" height="51" viewBox="0 0 104 51" fill="none" xmlns="http://www.w3.org/2000/svg">
<path fill-rule="evenodd" clip-rule="evenodd" d="M20.8534 2.91793H73.9597V18.2815C72.3352 18.3032 70.7162 18.5376 69.4855 18.772C67.8515 19.0833 63.0985 22.5978 60.9263 24.3161C52.6022 32.6402 45.9987 29.7979 44.9182 29.3329C44.8498 29.3034 44.8036 29.2835 44.7804 29.2766C44.7616 29.2709 44.7302 29.263 44.6877 29.2522C43.9983 29.0778 40.3866 28.164 40.1117 24.3161C39.8783 21.048 43.4511 16.2756 45.2667 14.2979L49.4491 9.6292C50.519 8.17024 48.7682 6.80866 47.7956 7.10033C47.1248 7.30148 40.9547 12.3526 37.9719 14.9787C35.9618 17.1834 32.0194 21.4371 32.3306 20.8146C32.7197 20.0365 34.5677 10.5047 34.9567 7.9758C35.3458 5.44694 32.8169 6.22508 32.3306 6.80866C31.9415 7.27553 29.3803 11.0885 28.1482 12.9367C27.5303 14.4471 23.8914 17.8978 20.8534 20.6055V2.91793ZM17.9355 23.1494L17.9355 23.1494L11.9051 28.1099C10.8352 30.6393 13.3641 30.6383 13.8504 30.4437C14.043 30.3667 15.8212 28.9327 17.9355 27.1921V34.8206V37.7385H20.8534H73.9597H76.8776V34.8206V21.7934L76.9254 21.8005L76.9255 21.8005L76.9257 21.8005C80.1667 22.2785 84.5069 22.9187 85.9232 22.8571C87.7128 22.7793 89.0032 21.2685 89.4247 20.5228C90.2028 17.2158 87.1876 18.383 86.604 18.8693C85.2034 20.659 79.9252 19.3232 77.0721 18.5775C77.0078 18.5621 76.9429 18.5473 76.8776 18.5332V2.91793V0H73.9597H20.8534H17.9355V2.91793V23.1494ZM73.9597 21.3772V34.8206H20.8534V24.774C23.1919 22.8248 25.2726 21.0641 25.5221 20.8146C25.793 20.5437 26.8182 19.3718 27.8489 18.1936L27.8494 18.1931L27.8497 18.1927L27.8497 18.1927L27.8497 18.1927C29.0394 16.8329 30.2359 15.465 30.2881 15.465C30.3523 15.465 29.3142 19.3229 28.4054 22.7004C27.9377 24.4388 27.5042 26.0499 27.2729 26.9422C26.7282 29.0431 28.5373 29.1793 29.5099 28.9848L38.1211 19.6165C37.0085 21.1934 36.4703 27.2633 38.6528 29.082C39.8272 30.0607 41.422 31.3066 43.1269 31.9915C45.9998 33.1456 49.1855 33.4227 51.1999 33.3617C53.7676 33.2839 57.0033 31.4488 58.3001 30.541C59.8564 29.2766 65.0114 25.0942 67.7348 23.2462C70.5894 21.3091 72.2089 21.3009 73.1816 21.3009C73.308 21.3009 73.5789 21.3288 73.9597 21.3772ZM92.6344 15.8541C92.6344 16.8747 91.807 17.7021 90.7864 17.7021C89.7657 17.7021 88.9384 16.8747 88.9384 15.8541C88.9384 14.8334 89.7657 14.0061 90.7864 14.0061C91.807 14.0061 92.6344 14.8334 92.6344 15.8541ZM0 43.2917V50.1002H1.11854V45.7401L2.96656 48.7774H3.74467L5.59269 45.7401V50.1002H6.71123V43.2917H5.93312L3.35561 47.5344L0.778114 43.2917H0ZM10.4247 43.2917V50.1002H11.1931H11.5433H15.0059V49.0789H11.5433V47.1142H14.6752V46.1318H11.5433V44.313H14.9573V43.2917H11.5433H11.1931H10.4247ZM19.5174 47.2114V50.1002H18.3989V43.2917H19.1673H19.5174H20.9472C21.3752 43.2917 21.7513 43.3792 22.0755 43.5543C22.3997 43.7229 22.6493 43.9563 22.8244 44.2546C23.006 44.5464 23.0968 44.8803 23.0968 45.2564C23.0968 45.652 23.006 45.9956 22.8244 46.2874C22.6493 46.5792 22.3997 46.8062 22.0755 46.9683C21.8049 47.1036 21.4981 47.1824 21.1553 47.2048L23.5442 50.1002H22.1338L19.8057 47.2114H19.5174ZM19.5174 46.2874H20.8889C21.2325 46.2874 21.4984 46.1999 21.6864 46.0248C21.881 45.8433 21.9782 45.5936 21.9782 45.2759C21.9782 44.9906 21.8842 44.7507 21.6961 44.5561C21.5081 44.3616 21.2422 44.2643 20.8986 44.2643H19.5174V46.2874ZM28.6875 43.2917L25.8863 50.1002H27.0729L27.5963 48.7871H30.5225L31.0413 50.1002H32.2473L29.4656 43.2917H28.6875ZM30.1383 47.8145L29.0659 45.1L27.9839 47.8145H30.1383ZM34.0409 43.2917L36.7934 50.1002H37.5716L40.3436 43.2917H39.1472L37.1932 48.26L35.2567 43.2917H34.0409ZM43.5561 43.2917V50.1002H44.6747V43.2917H43.5561ZM55.2939 49.1275H53.6891V47.0072H55.2939C55.5209 47.0072 55.7154 47.0558 55.8775 47.1531C56.0396 47.2503 56.1628 47.38 56.2471 47.5421C56.3314 47.7042 56.3736 47.8793 56.3736 48.0674C56.3736 48.3462 56.2795 48.5926 56.0915 48.8066C55.9035 49.0205 55.6376 49.1275 55.2939 49.1275ZM53.6891 46.0345H55.1286C55.4204 46.0345 55.6538 45.96 55.8289 45.8108C56.004 45.6617 56.0915 45.4412 56.0915 45.1494C56.0915 44.8576 56.004 44.6372 55.8289 44.488C55.6538 44.3389 55.4204 44.2643 55.1286 44.2643H53.6891V46.0345ZM53.6891 43.2917H55.1578C55.6181 43.2917 56.0007 43.376 56.3055 43.5446C56.6102 43.7132 56.8372 43.9304 56.9863 44.1962C57.1355 44.4621 57.21 44.7474 57.21 45.0522C57.21 45.4088 57.1095 45.7233 56.9085 45.9956C56.7859 46.1673 56.626 46.3183 56.4287 46.4488C56.7167 46.6073 56.9512 46.8064 57.1322 47.0461C57.3721 47.3638 57.4921 47.7367 57.4921 48.1646C57.4921 48.5148 57.4046 48.8357 57.2295 49.1275C57.0609 49.4193 56.808 49.656 56.4708 49.8376C56.1401 50.0126 55.7316 50.1002 55.2453 50.1002H53.6891H53.3389H52.5705V43.2917H53.3389H53.6891ZM63.6377 47.0945V50.1002H62.5191V47.1374L60.0195 43.2917H61.3131L63.0833 46.0758L64.8535 43.2917H66.1276L63.6377 47.0945ZM75.2455 43.2917L72.4443 50.1002H73.6309L74.1543 48.7871H77.0805L77.5993 50.1002H78.8054L76.0236 43.2917H75.2455ZM76.6963 47.8145L75.6239 45.1L74.542 47.8145H76.6963ZM84.6639 49.1275H83.0591V47.0072H84.6639C84.8909 47.0072 85.0854 47.0558 85.2475 47.1531C85.4096 47.2503 85.5328 47.38 85.6171 47.5421C85.7014 47.7042 85.7436 47.8793 85.7436 48.0674C85.7436 48.3462 85.6495 48.5926 85.4615 48.8066C85.2734 49.0205 85.0076 49.1275 84.6639 49.1275ZM83.0591 46.0345H84.4986C84.7904 46.0345 85.0238 45.96 85.1989 45.8108C85.3739 45.6617 85.4615 45.4412 85.4615 45.1494C85.4615 44.8576 85.3739 44.6372 85.1989 44.488C85.0238 44.3389 84.7904 44.2643 84.4986 44.2643H83.0591V46.0345ZM83.0591 43.2917H84.5277C84.9881 43.2917 85.3707 43.376 85.6755 43.5446C85.9802 43.7132 86.2072 43.9304 86.3563 44.1962C86.5055 44.4621 86.58 44.7474 86.58 45.0522C86.58 45.4088 86.4795 45.7233 86.2785 45.9956C86.1559 46.1673 85.9959 46.3183 85.7986 46.4488C86.0867 46.6073 86.3212 46.8064 86.5022 47.0461C86.7421 47.3638 86.8621 47.7367 86.8621 48.1646C86.8621 48.5148 86.7746 48.8357 86.5995 49.1275C86.4309 49.4193 86.178 49.656 85.8408 49.8376C85.5101 50.0126 85.1016 50.1002 84.6153 50.1002H83.0591H82.7089H81.9405V43.2917H82.7089H83.0591ZM92.9515 49.1275H91.3467V47.0072H92.9515C93.1785 47.0072 93.373 47.0558 93.5351 47.1531C93.6972 47.2503 93.8204 47.38 93.9047 47.5421C93.989 47.7042 94.0312 47.8793 94.0312 48.0674C94.0312 48.3462 93.9371 48.5926 93.7491 48.8066C93.561 49.0205 93.2952 49.1275 92.9515 49.1275ZM91.3467 46.0345H92.7862C93.078 46.0345 93.3114 45.96 93.4865 45.8108C93.6615 45.6617 93.7491 45.4412 93.7491 45.1494C93.7491 44.8576 93.6615 44.6372 93.4865 44.488C93.3114 44.3389 93.078 44.2643 92.7862 44.2643H91.3467V46.0345ZM91.3467 43.2917H92.8153C93.2757 43.2917 93.6583 43.376 93.9631 43.5446C94.2678 43.7132 94.4948 43.9304 94.6439 44.1962C94.7931 44.4621 94.8676 44.7474 94.8676 45.0522C94.8676 45.4088 94.7671 45.7233 94.5661 45.9956C94.4435 46.1673 94.2835 46.3183 94.0862 46.4488C94.3743 46.6073 94.6088 46.8064 94.7898 47.0461C95.0297 47.3638 95.1497 47.7367 95.1497 48.1646C95.1497 48.5148 95.0621 48.8357 94.8871 49.1275C94.7185 49.4193 94.4656 49.656 94.1284 49.8376C93.7977 50.0126 93.3892 50.1002 92.9029 50.1002H91.3467H90.9965H90.2281V43.2917H90.9965H91.3467ZM101.295 47.0945V50.1002H100.177V47.1374L97.677 43.2917H98.9706L100.741 46.0758L102.511 43.2917H103.785L101.295 47.0945Z" fill="black"/>
</svg>
