<svg width="19" height="18" viewBox="0 0 19 18" fill="none" xmlns="http://www.w3.org/2000/svg">
<g clip-path="url(#clip0_607_472)">
<g clip-path="url(#clip1_607_472)">
<path d="M18.3087 9.2025C18.3087 8.61 18.2562 8.0475 18.1662 7.5H9.69116V10.8825H14.5437C14.3262 11.9925 13.6887 12.93 12.7437 13.5675V15.8175H15.6387C17.3337 14.25 18.3087 11.94 18.3087 9.2025Z" fill="#4285F4"/>
<path d="M9.69119 17.9993C12.1212 17.9993 14.1537 17.1893 15.6387 15.8168L12.7437 13.5668C11.9337 14.1068 10.9062 14.4368 9.69119 14.4368C7.34369 14.4368 5.35619 12.8543 4.64369 10.7168H1.65869V13.0343C3.13619 15.9743 6.17369 17.9993 9.69119 17.9993Z" fill="#34A853"/>
<path d="M4.64366 10.7173C4.45616 10.1773 4.35866 9.59984 4.35866 8.99984C4.35866 8.39984 4.46366 7.82234 4.64366 7.28234V4.96484H1.65866C1.04366 6.17984 0.691162 7.54484 0.691162 8.99984C0.691162 10.4548 1.04366 11.8198 1.65866 13.0348L4.64366 10.7173Z" fill="#FBBC05"/>
<path d="M9.69119 3.5625C11.0187 3.5625 12.2037 4.02 13.1412 4.9125L15.7062 2.3475C14.1537 0.892501 12.1212 0 9.69119 0C6.17369 0 3.13619 2.025 1.65869 4.965L4.64369 7.2825C5.35619 5.145 7.34369 3.5625 9.69119 3.5625Z" fill="#EA4335"/>
</g>
</g>
<defs>
<clipPath id="clip0_607_472">
<rect width="18" height="18" fill="white" transform="translate(0.5)"/>
</clipPath>
<clipPath id="clip1_607_472">
<rect width="18" height="18" fill="white" transform="translate(0.5)"/>
</clipPath>
</defs>
</svg>
